<svg id="btn_hidesidebar" xmlns="http://www.w3.org/2000/svg" width="24" height="24" viewBox="0 0 24 24">
  <rect id="Rectangle_437" data-name="Rectangle 437" width="24" height="24" rx="4" fill="#020202"/>
  <path id="Path_1265" data-name="Path 1265" d="M5.62,4.638,1.987.151A.409.409,0,0,0,1.418.087l-1.262,1A.408.408,0,0,0,0,1.36a.413.413,0,0,0,.089.3l2.62,3.233L.091,8.128A.41.41,0,0,0,0,8.43.406.406,0,0,0,.156,8.7l1.262,1a.4.4,0,0,0,.252.088.408.408,0,0,0,.317-.152L5.62,5.151a.409.409,0,0,0,0-.513" transform="translate(10.813 17.323) rotate(180)" fill="#e6e6e6"/>
  <path id="Path_2603" data-name="Path 2603" d="M5.62,4.638,1.987.151A.409.409,0,0,0,1.418.087l-1.262,1A.408.408,0,0,0,0,1.36a.413.413,0,0,0,.089.3l2.62,3.233L.091,8.128A.41.41,0,0,0,0,8.43.406.406,0,0,0,.156,8.7l1.262,1a.4.4,0,0,0,.252.088.408.408,0,0,0,.317-.152L5.62,5.151a.409.409,0,0,0,0-.513" transform="translate(18.898 17.323) rotate(180)" fill="#e6e6e6"/>
</svg>
