<svg id="Component_1" data-name="Component 1" xmlns="http://www.w3.org/2000/svg" width="32" height="32" viewBox="0 0 32 32">
  <g id="Group_805" data-name="Group 805" transform="translate(7.915 6.559)">
    <path id="Path_460" data-name="Path 460" d="M1662.331,1315.043c.681,5-2.476,9.569-5.687,3.144C1653.817,1312.53,1661.237,1307.012,1662.331,1315.043Z" transform="translate(-1656.006 -1308.47)" fill="#8092c9" stroke="rgba(0,0,0,0)" stroke-width="1"/>
    <path id="Path_461" data-name="Path 461" d="M1668.944,1358.536a1.987,1.987,0,0,1-1.6,2.306,1.862,1.862,0,0,1-2.2-1.66c-.133-.693-.192-1.4-.291-2.1a.713.713,0,0,1,.7-.9c.726-.1,1.455-.186,2.181-.284a.763.763,0,0,1,.967.727C1668.8,1357.328,1668.879,1358.031,1668.944,1358.536Z" transform="translate(-1662.61 -1342.036)" fill="#8092c9" stroke="rgba(0,0,0,0)" stroke-width="1"/>
    <path id="Path_462" data-name="Path 462" d="M1692.138,1305.586c-.787,5.782,2.862,11.063,6.575,3.635C1701.982,1302.681,1693.4,1296.3,1692.138,1305.586Z" transform="translate(-1682.951 -1300.925)" fill="#8092c9" stroke="rgba(0,0,0,0)" stroke-width="1"/>
    <path id="Path_463" data-name="Path 463" d="M1692.406,1355.868c-.056,1.523.706,2.521,1.853,2.666a2.153,2.153,0,0,0,2.547-1.92c.154-.8.222-1.618.337-2.427a.825.825,0,0,0-.809-1.038c-.839-.12-1.682-.215-2.522-.328a.881.881,0,0,0-1.118.84C1692.578,1354.472,1692.482,1355.283,1692.406,1355.868Z" transform="translate(-1683.23 -1339.732)" fill="#8092c9" stroke="rgba(0,0,0,0)" stroke-width="1"/>
  </g>
  <g id="Ellipse_109" data-name="Ellipse 109" fill="none" stroke="#8092c9" stroke-width="1" opacity="0.48">
    <circle cx="16" cy="16" r="16" stroke="none"/>
    <circle cx="16" cy="16" r="15.5" fill="none"/>
  </g>
</svg>
