<svg id="Component_270_10" data-name="Component 270 – 10" xmlns="http://www.w3.org/2000/svg" width="54" height="18" viewBox="0 0 54 18">
  <rect id="Rectangle_976" data-name="Rectangle 976" width="54" height="18" fill="none"/>
  <g id="Group_907" data-name="Group 907" transform="translate(2.237 4.607)">
    <path id="Path_586" data-name="Path 586" d="M78.344,16.877a8.679,8.679,0,0,1-2.64-.39,5.853,5.853,0,0,1-2.109-1.17l1.653-1.971a4.93,4.93,0,0,0,1.588.833,5.712,5.712,0,0,0,1.654.251,1.3,1.3,0,0,0,.609-.105.322.322,0,0,0,.185-.291v-.026c0-.134-.091-.245-.272-.332A4.711,4.711,0,0,0,78,13.4q-.781-.16-1.488-.371a5.138,5.138,0,0,1-1.243-.543,2.621,2.621,0,0,1-.854-.834,2.263,2.263,0,0,1-.318-1.23v-.027a2.928,2.928,0,0,1,.259-1.23,2.8,2.8,0,0,1,.753-.992,3.6,3.6,0,0,1,1.232-.662,5.455,5.455,0,0,1,1.687-.238,7.874,7.874,0,0,1,2.361.319,5.619,5.619,0,0,1,1.819.951L80.7,10.632a4.645,4.645,0,0,0-1.4-.7,4.879,4.879,0,0,0-1.383-.219.958.958,0,0,0-.509.107.315.315,0,0,0-.166.278v.026c0,.125.083.23.251.319a4.2,4.2,0,0,0,.978.278,13.77,13.77,0,0,1,1.615.383,4.8,4.8,0,0,1,1.25.577,2.554,2.554,0,0,1,.807.84,2.335,2.335,0,0,1,.284,1.19v.027a2.876,2.876,0,0,1-.292,1.309,2.806,2.806,0,0,1-.82.986,3.906,3.906,0,0,1-1.284.621A6.048,6.048,0,0,1,78.344,16.877Z" transform="translate(-73.594 -6.863)" fill="#fc4c02"/>
    <path id="Path_587" data-name="Path 587" d="M90.456,10.171H87.73V7.553h8.549v2.618H93.553v6.642h-3.1Z" transform="translate(-78.909 -6.972)" fill="#fc4c02"/>
    <path id="Path_588" data-name="Path 588" d="M102.386,7.553h4.526a6.2,6.2,0,0,1,2.044.284,3.4,3.4,0,0,1,1.29.774,2.812,2.812,0,0,1,.636.951,3.356,3.356,0,0,1,.212,1.243v.028a2.919,2.919,0,0,1-.49,1.719,3.372,3.372,0,0,1-1.336,1.111l2.157,3.149H107.89l-1.747-2.646h-.661v2.646h-3.1Zm4.433,4.405a1.421,1.421,0,0,0,.872-.238.783.783,0,0,0,.318-.663v-.026a.752.752,0,0,0-.318-.667,1.489,1.489,0,0,0-.859-.218h-1.351v1.812Z" transform="translate(-84.416 -6.972)" fill="#fc4c02"/>
    <path id="Path_589" data-name="Path 589" d="M143.189,12.462l2.018,3.984h2.967l-4.985-9.841L138.2,16.446h2.968Z" transform="translate(-97.862 -6.606)" fill="#fc4c02"/>
    <path id="Path_590" data-name="Path 590" d="M120.557,12.462l2.018,3.984h2.968l-4.985-9.841-4.982,9.841h2.966Z" transform="translate(-89.362 -6.606)" fill="#fc4c02"/>
    <path id="Path_591" data-name="Path 591" d="M131.874,11.536l-2.019-3.984h-2.968l4.987,9.841,4.983-9.841h-2.965Z" transform="translate(-93.483 -6.972)" fill="#fc4c02"/>
  </g>
</svg>
