<svg id="Component_1" data-name="Component 1" xmlns="http://www.w3.org/2000/svg" width="32" height="32" viewBox="0 0 32 32">
  <g id="Ellipse_109" data-name="Ellipse 109" fill="none" stroke="#f93" stroke-width="1">
    <circle cx="16" cy="16" r="16" stroke="none"/>
    <circle cx="16" cy="16" r="15.5" fill="none"/>
  </g>
  <path id="Path_910" data-name="Path 910" d="M136.362,249.254a4.744,4.744,0,0,1-.988-2.616,4.98,4.98,0,0,1,.281-1.754,6.2,6.2,0,0,0-.709.483,5.616,5.616,0,0,0-1.882,2.565l0,.018,0-.018s1.139-4.455-2.031-6.529c-.263-.172-.87-.514-.87-.514s1.574,3.858-1.244,6.147c-.554-2.264-3.482-2.291-3.482-2.291s.225.788.261.975c.475,2.46-.98,3.238-1.275,5.564.034-.267.02-.161,0,0v0h0v0a4.338,4.338,0,0,0,1.976,4.193,3.947,3.947,0,0,1,.694-1.817,3.28,3.28,0,0,0,.684-1.809,3.455,3.455,0,0,0-.194-1.213,4.348,4.348,0,0,1,.49.335,4.127,4.127,0,0,1,1.257,1.642l.011-.007c-.14-.63-.533-3.087,1.439-4.377.182-.119.6-.355.6-.355a3.754,3.754,0,0,0,1.342,4.425,2.725,2.725,0,0,1,.834-2.139,2.3,2.3,0,0,1,.882-.464s-.156.546-.181.675c-.328,1.7,1.1,3.026.8,4.638a4.517,4.517,0,0,1-.254.874h.137a5.007,5.007,0,0,0,1.858-1.581A4.554,4.554,0,0,0,136.362,249.254Z" transform="translate(-115.214 -235.89)" fill="#ff1c1c"/>
  <text id="Kcal" transform="translate(16 25)" fill="#ff1c1c" stroke="rgba(0,0,0,0)" stroke-width="1" font-size="6" font-family="Sarabun-Bold, Sarabun" font-weight="700"><tspan x="-5" y="0">Kcal</tspan></text>
</svg>
