<svg id="ic_default_profile" xmlns="http://www.w3.org/2000/svg" width="26" height="26" viewBox="0 0 26 26">
  <g id="img_profile">
    <circle id="Ellipse_8" data-name="Ellipse 8" cx="13" cy="13" r="13" fill="#0e1839"/>
    <path id="Intersection_1" data-name="Intersection 1" d="M0,14.754a1.557,1.557,0,0,1,.52-.968c.852-.434,2.493-1.142,2.951-1.316,1.948-.737.7-1.159,2.559-1.814v-.479a3.605,3.605,0,0,1-1.417-2.7s-.606.3-.571-.655c.031-.85-.273-1.962.6-1.481a9.978,9.978,0,0,1-.283-2.285A2.835,2.835,0,0,1,5.987.431,5,5,0,0,1,8.061,0a4.77,4.77,0,0,1,3.181,1.136,1.43,1.43,0,0,1,.474.943,9.888,9.888,0,0,1-.242,3.266c.877-.48.569.631.6,1.481.035.957-.592.655-.592.655a3.573,3.573,0,0,1-1.446,2.7v.479c1.861.655.64,1.077,2.588,1.814.458.173,2.12.881,2.972,1.316a.58.58,0,0,1,.2.187,10.132,10.132,0,0,1-8.209,4.29A10.056,10.056,0,0,1,0,14.754Z" transform="translate(5.102 4.737)" fill="#fff" stroke="rgba(0,0,0,0)" stroke-width="1"/>
  </g>
</svg>
