<svg id="ic_menu_user" xmlns="http://www.w3.org/2000/svg" width="20.293" height="16.38" viewBox="0 0 20.293 16.38">
  <path id="Union_4" data-name="Union 4" d="M.683,16.38A.682.682,0,0,1,0,15.7a5.468,5.468,0,0,1,5.46-5.461H8.19a5.467,5.467,0,0,1,5.46,5.461.682.682,0,0,1-.682.681Zm.739-1.365H12.229A4.1,4.1,0,0,0,8.19,11.6H5.46A4.1,4.1,0,0,0,1.422,15.015ZM2.731,4.777C2.731,1.919,4.376,0,6.826,0s4.1,1.919,4.1,4.777-1.646,4.778-4.1,4.778S2.731,7.636,2.731,4.777Zm1.365,0c0,1.65.717,3.413,2.73,3.413s2.73-1.764,2.73-3.413-.717-3.412-2.73-3.412S4.1,3.128,4.1,4.777Zm9.841,4.267a.683.683,0,0,1,0-1.365h4.437a.683.683,0,0,1,0,1.365ZM13.8,5.46a.624.624,0,0,1-.541-.682A.624.624,0,0,1,13.8,4.1h5.956a.624.624,0,0,1,.542.682.625.625,0,0,1-.542.682Zm0-3.584a.624.624,0,0,1-.541-.682A.624.624,0,0,1,13.8.512h5.956a.625.625,0,0,1,.542.682.624.624,0,0,1-.542.682Z" fill="#b3b3b3"/>
</svg>
