<svg id="ic_menu_setting" xmlns="http://www.w3.org/2000/svg" width="17.063" height="17.063" viewBox="0 0 17.063 17.063">
  <path id="Union_3" data-name="Union 3" d="M7.508,17.063a.683.683,0,0,1-.662-.518l-.474-1.9a6.013,6.013,0,0,1-.633-.263l-1.681,1.01a.682.682,0,0,1-.834-.1L1.775,13.84a.683.683,0,0,1-.1-.834l1.011-1.681a6.112,6.112,0,0,1-.263-.633l-1.9-.475A.683.683,0,0,1,0,9.555V7.508a.683.683,0,0,1,.518-.662l1.9-.474a6.1,6.1,0,0,1,.263-.633L1.672,4.057a.684.684,0,0,1,.1-.835L3.224,1.775a.682.682,0,0,1,.834-.1L5.739,2.683a6.136,6.136,0,0,1,.633-.263l.474-1.9A.683.683,0,0,1,7.508,0H9.555a.684.684,0,0,1,.663.518l.474,1.9a6.232,6.232,0,0,1,.633.263l1.682-1.011a.682.682,0,0,1,.834.1l1.447,1.448a.682.682,0,0,1,.1.835l-1.01,1.681a6.338,6.338,0,0,1,.263.633l1.9.474a.682.682,0,0,1,.517.662V9.555a.682.682,0,0,1-.517.662l-1.9.475a6.393,6.393,0,0,1-.263.633l1.01,1.681a.681.681,0,0,1-.1.834l-1.447,1.448a.682.682,0,0,1-.834.1l-1.682-1.01a6.106,6.106,0,0,1-.633.263l-.474,1.9a.684.684,0,0,1-.663.518ZM6.051,13a4.81,4.81,0,0,0,1.075.447.683.683,0,0,1,.478.492L8.041,15.7h.981l.437-1.755a.682.682,0,0,1,.477-.492A4.766,4.766,0,0,0,11.012,13a.684.684,0,0,1,.714.022l.028.02,1.5.9.693-.693-.908-1.512-.013-.018a.683.683,0,0,1-.021-.71,4.743,4.743,0,0,0,.447-1.074.683.683,0,0,1,.492-.478L15.7,9.022v-.98L13.943,7.6a.683.683,0,0,1-.492-.478A4.753,4.753,0,0,0,13,6.052a.684.684,0,0,1,.02-.711c.008-.011.015-.023.024-.033l.9-1.5-.693-.694-1.515.91-.013.009a.683.683,0,0,1-.714.023,4.742,4.742,0,0,0-1.075-.448.682.682,0,0,1-.477-.491L9.023,1.365H8.041L7.6,3.121a.682.682,0,0,1-.478.491,4.786,4.786,0,0,0-1.075.448.683.683,0,0,1-.713-.022L5.31,4.019l-1.5-.9-.694.694.9,1.5.02.027a.683.683,0,0,1,.022.714,4.819,4.819,0,0,0-.447,1.075.682.682,0,0,1-.492.478l-1.755.437v.98l1.755.438a.682.682,0,0,1,.492.477,4.8,4.8,0,0,0,.447,1.076.683.683,0,0,1-.022.714l-.02.027-.9,1.5.694.693,1.513-.91.013-.008a.685.685,0,0,1,.377-.113A.674.674,0,0,1,6.051,13ZM4.437,8.532a4.1,4.1,0,1,1,4.095,4.1A4.1,4.1,0,0,1,4.437,8.532Zm1.365,0A2.73,2.73,0,1,0,8.532,5.8,2.733,2.733,0,0,0,5.8,8.532Z" fill="#b3b3b3"/>
</svg>
