<svg id="ic_menu_report" xmlns="http://www.w3.org/2000/svg" width="17.063" height="17.063" viewBox="0 0 17.063 17.063">
  <path id="Union_1" data-name="Union 1" d="M12.968,17.063a.682.682,0,0,1-.682-.682V.683A.682.682,0,0,1,12.968,0h3.413a.683.683,0,0,1,.682.683v15.7a.682.682,0,0,1-.682.682Zm.682-1.365H15.7V1.365H13.651ZM6.826,17.063a.682.682,0,0,1-.683-.682V5.119a.682.682,0,0,1,.683-.682h3.412a.683.683,0,0,1,.683.682V16.381a.683.683,0,0,1-.683.682ZM7.508,15.7H9.555V5.8H7.508ZM.683,17.063A.682.682,0,0,1,0,16.381V8.873a.682.682,0,0,1,.683-.683H4.1a.683.683,0,0,1,.683.683v7.507a.683.683,0,0,1-.683.682ZM1.365,15.7H3.413V9.555H1.365Z" fill="#b3b3b3"/>
</svg>
