<svg id="ic_menu_challenge" xmlns="http://www.w3.org/2000/svg" width="17.063" height="17.063" viewBox="0 0 17.063 17.063">
  <path id="Union_2" data-name="Union 2" d="M5.576,17.063a.682.682,0,0,1-.186-1.339c2.037-.577,2.175-1.871,2.321-3.242.009-.085.018-.168.027-.251A5.816,5.816,0,0,1,2.812,7.455,3.418,3.418,0,0,1,0,4.1V1.365A.682.682,0,0,1,.682.683H2.731A.682.682,0,0,1,3.413,0H13.651a.683.683,0,0,1,.683.682h2.048a.682.682,0,0,1,.682.682V4.1a3.418,3.418,0,0,1-2.811,3.359,5.815,5.815,0,0,1-4.928,4.777c.009.082.018.166.027.251.146,1.37.284,2.665,2.321,3.242a.682.682,0,0,1-.186,1.339ZM8.017,15.7h1.03a3.706,3.706,0,0,1-.515-.79A3.645,3.645,0,0,1,8.017,15.7Zm.515-4.778a4.441,4.441,0,0,0,4.436-4.436V1.365H4.1V6.484A4.441,4.441,0,0,0,8.532,10.92Zm5.8-4.894A2.051,2.051,0,0,0,15.7,4.1V2.048H14.333ZM1.365,4.1A2.051,2.051,0,0,0,2.73,6.026V2.048H1.365Z" fill="#c3eb29"/>
</svg>
